PathFileType	4	(X/Y/Z)	c:/Users/goper/Files/vsCode/490R/osim_files/C15/C15_Slow_01.trc
DataRate	CameraRate	NumFrames	NumMarkers	Units                	OrigDataRate	OrigDataStartFrame	OrigNumFrames
250.00	250.00	6	36	mm	250.0	1545	3089
                Frame#	Time	LPSIS			LASIS			LTH1			LTH2			LTH3			LTH4			LLFE			LMFE			LSH1			LSH2			LSH3			LSH4			LLMAL			LMMAL			LCAL			LMTP5			LTOE			LMTP1			RPSIS			RASIS			RTH1			RTH2			RTH3			RTH4			RLFE			RMFE			RSH1			RSH2			RSH3			RSH4			RLMAL			RMMAL			RCAL			RMTP1			RTOE			RMTP5		
		X1	Y1	Z1	X2	Y2	Z2	X3	Y3	Z3	X4	Y4	Z4	X5	Y5	Z5	X6	Y6	Z6	X7	Y7	Z7	X8	Y8	Z8	X9	Y9	Z9	X10	Y10	Z10	X11	Y11	Z11	X12	Y12	Z12	X13	Y13	Z13	X14	Y14	Z14	X15	Y15	Z15	X16	Y16	Z16	X17	Y17	Z17	X18	Y18	Z18	X19	Y19	Z19	X20	Y20	Z20	X21	Y21	Z21	X22	Y22	Z22	X23	Y23	Z23	X24	Y24	Z24	X25	Y25	Z25	X26	Y26	Z26	X27	Y27	Z27	X28	Y28	Z28	X29	Y29	Z29	X30	Y30	Z30	X31	Y31	Z31	X32	Y32	Z32	X33	Y33	Z33	X34	Y34	Z34	X35	Y35	Z35	X36	Y36	Z36

1545	6.17600	659.30743	1013.94397	269.31555	490.90445	1000.45325	329.32855	517.96985	606.58160	388.49164	512.81732	561.51495	372.78528	469.22766	622.08624	384.68347	463.64011	578.15118	374.86563	488.58163	489.83511	351.49268	488.11264	478.43698	230.33960	547.93506	380.46640	364.28076	547.82538	334.92770	366.35794	485.83533	374.56082	360.45496	493.69592	330.64343	364.29025	536.53534	76.29339	294.87390	514.91730	104.78550	207.70413	595.11407	54.69637	246.02664	415.51724	35.06415	317.85443	357.01886	57.82256	257.23941	393.95819	28.72254	199.10338	661.60553	1007.10541	148.75824	508.18726	984.84540	80.50349	536.39307	612.71204	17.39474	531.66370	566.94049	20.69987	476.10297	615.46155	25.77611	477.72653	567.94751	25.70406	516.55603	474.91656	37.21481	520.98053	451.38837	158.91457	638.81073	456.06485	29.68243	672.30878	428.76007	26.31077	604.08148	404.70184	20.88544	642.94678	386.35638	18.41080	862.26080	240.54129	81.28928	813.85162	222.46420	160.80258	903.30383	280.77911	135.78424	824.23322	92.61140	163.40326	800.71802	73.90384	106.26582	870.12476	105.99574	55.60378
1546	6.18000	655.76129	1014.26160	269.74301	487.44653	1000.75262	330.04382	516.50061	606.74664	388.89679	510.31836	561.23303	372.48187	467.83572	622.32538	385.28336	461.71671	577.87115	374.85431	487.42749	490.00882	351.66330	486.50552	478.33072	230.17607	547.14160	380.49603	364.22272	547.19427	334.99417	366.27512	485.13470	374.41977	360.58072	493.59399	330.37933	364.36078	536.50134	76.33073	294.83472	514.83795	104.79008	207.63109	595.08508	54.69322	246.01587	415.53769	35.05081	317.86826	357.02087	57.77925	257.26294	393.98007	28.71219	199.09146	657.83270	1007.65106	149.12753	504.28702	985.52161	80.97360	530.11023	613.52185	17.49736	525.07507	567.81403	20.73833	469.92947	616.66199	26.12604	471.79425	568.62360	26.04330	510.30206	476.34573	37.25570	514.52814	452.53738	159.27890	631.92719	457.33942	30.13383	665.35791	429.86499	26.98569	597.21521	405.79895	21.32961	636.26312	387.68515	18.81548	855.49255	241.99408	82.06258	806.69568	223.42924	161.24713	896.44250	281.40042	137.43614	816.03949	93.40414	162.02983	793.03540	75.41685	104.57306	862.94336	107.98029	54.91900
1547	6.18400	652.23218	1014.57263	270.14249	484.10120	1001.11261	330.74924	513.67572	606.14923	389.05075	508.60001	561.23364	372.57669	465.47372	621.74609	385.78998	459.89343	577.53693	374.81140	485.86029	489.61368	351.70712	485.41986	478.54764	230.30380	546.35559	380.55316	364.18927	546.64929	335.13525	366.20291	484.20734	374.15820	360.57315	493.04813	330.25665	364.41824	536.41553	76.35738	294.76218	514.75647	104.79520	207.55495	595.06635	54.72683	245.96655	415.52350	35.03833	317.88342	356.99677	57.71657	257.26666	393.96286	28.65957	199.05940	654.06464	1008.21356	149.51936	500.36716	986.30701	81.74377	523.73352	614.31195	17.57857	518.62860	568.68781	20.75118	463.38550	617.79321	26.47222	464.66190	570.29950	26.33242	503.48700	477.38159	37.43640	507.70105	453.38770	159.50397	625.35095	458.81638	30.68529	658.75256	431.29208	27.68995	590.38837	406.91626	21.79342	629.68005	388.95166	19.27604	848.74597	243.28862	82.79188	799.38922	224.22731	161.72878	889.54254	281.89838	138.97694	807.86475	94.06528	160.75475	785.16357	76.66344	102.97379	856.06421	110.29052	54.22005
1548	6.18800	648.75934	1014.87830	270.49854	481.09637	1001.74457	331.39767	512.69812	606.71539	389.64651	506.90765	561.25171	372.61987	463.26453	621.47009	385.62567	458.08890	577.43756	374.95554	484.61227	489.52328	351.82812	483.97601	478.23178	230.35722	545.61084	380.57977	364.13821	546.11414	335.17630	366.16263	483.54791	374.10358	360.82233	492.49701	330.12366	364.46472	536.37903	76.37006	294.70657	514.69116	104.77100	207.47086	594.84479	55.08237	245.88744	415.53851	35.01106	317.90240	356.98315	57.65739	257.26544	393.96597	28.62884	199.02512	650.28870	1008.71857	149.87051	496.38373	986.90143	82.62065	517.54364	615.09680	17.62029	512.09473	569.46240	20.81170	457.25986	618.92755	26.79144	458.17075	571.49280	26.65008	496.67450	478.37415	37.63010	501.12045	454.41098	159.78154	618.58441	459.99722	31.22082	651.97729	432.62158	28.17331	583.60223	408.05902	22.26951	622.38086	389.26511	19.79030	841.77631	244.36586	83.53214	792.05365	224.88402	162.15205	882.69769	282.17990	140.44212	799.76727	94.60354	159.67230	777.13208	77.82162	101.47000	849.56036	112.25936	54.16205
1549	6.19200	645.24677	1015.16736	270.86417	477.48596	1001.64203	332.13184	510.79086	606.72797	389.72318	505.23016	561.27283	372.67566	462.03650	621.73340	385.91153	456.26224	577.22772	374.95438	483.38510	489.39056	351.89377	482.65912	478.13803	230.43156	544.90216	380.61035	364.10083	545.44427	335.14716	366.14978	482.86844	373.88345	360.90366	491.91431	330.01059	364.58334	536.30701	76.38921	294.63913	514.61871	104.75372	207.39909	594.92926	54.38055	245.71754	415.54156	35.00266	317.93448	356.98880	57.60914	257.25610	393.96841	28.60723	198.99063	646.50464	1009.17761	150.18642	492.56586	987.60150	83.03841	511.31314	615.91449	17.65712	505.05859	570.04773	21.44208	451.21506	620.18280	27.16224	451.47079	572.48895	26.81285	489.94000	479.36945	37.76903	494.97610	455.68875	160.24065	611.86011	461.10480	31.79159	645.05945	433.51532	29.06101	576.85809	409.23260	22.75053	616.33875	391.27982	20.29011	834.73950	245.27499	84.23611	784.62085	225.33466	162.58446	875.90283	282.22223	141.76396	791.29083	94.86092	158.42046	768.85474	78.86879	99.85766	839.84875	112.65409	52.40393
1550	6.19600	641.77551	1015.44598	271.20929	474.15384	1001.90808	332.84244	509.03629	606.82031	389.85678	503.61926	561.27423	372.71899	459.60992	621.24426	385.86276	454.65378	577.04718	374.90906	482.15329	489.21136	351.93777	481.67200	478.33374	230.55565	544.15765	380.65573	364.09076	544.86298	335.18607	366.09286	481.97656	373.50626	361.20511	491.34790	329.92538	364.66498	536.26373	76.43124	294.57260	514.58173	104.74945	207.32446	594.93408	54.38885	245.66098	415.59573	35.00455	317.95120	356.98093	57.56467	257.26794	393.96143	28.58433	198.95164	642.77936	1009.64313	150.50789	488.68311	988.28656	83.71250	505.25583	616.73676	17.67501	499.32050	571.23053	20.86008	445.48480	621.48895	27.52542	445.41452	573.82556	27.18318	483.13266	480.32947	37.99786	487.85178	456.40637	160.29164	605.17627	462.11682	32.41987	638.58752	434.66354	29.61515	570.15735	410.44232	23.22914	609.63507	392.28601	20.85191	827.59869	245.94250	84.87636	777.10150	225.64359	163.01402	868.72168	281.85913	143.08705	782.99805	95.12127	157.31778	760.43658	79.85847	98.34904	831.53375	113.61809	51.81688
